<?xml version="1.0" encoding="UTF-8"?>
<svg xmlns="http://www.w3.org/2000/svg" width="512" height="512" viewBox="0 0 512 512" role="img" aria-label="Vitte Suggestions Logo">
  <title>Vitte Suggestions Logo</title>
  <defs>
    <linearGradient id="bg" x1="0" y1="0" x2="1" y2="1">
      <stop offset="0%" stop-color="#0E2B54"/>
      <stop offset="55%" stop-color="#0D4A8A"/>
      <stop offset="100%" stop-color="#1489C9"/>
    </linearGradient>
    <linearGradient id="vgrad" x1="0" y1="0" x2="1" y2="1">
      <stop offset="0%" stop-color="#FFFFFF"/>
      <stop offset="100%" stop-color="#D9F3FF"/>
    </linearGradient>
    <linearGradient id="hint" x1="0" y1="0" x2="1" y2="1">
      <stop offset="0%" stop-color="#FFB347"/>
      <stop offset="100%" stop-color="#FF7A18"/>
    </linearGradient>
    <filter id="soft" x="-20%" y="-20%" width="140%" height="140%">
      <feGaussianBlur stdDeviation="2.5"/>
    </filter>
  </defs>

  <rect x="20" y="20" width="472" height="472" rx="108" fill="url(#bg)"/>
  <rect x="20" y="20" width="472" height="472" rx="108" fill="none" stroke="#64C7FF" stroke-opacity="0.28" stroke-width="4"/>

  <path d="M122 122 L226 386 H286 L390 122 H334 L256 316 178 122 Z" fill="url(#vgrad)"/>

  <path d="M334 154 L392 210 L352 250" fill="none" stroke="url(#hint)" stroke-width="20" stroke-linecap="round" stroke-linejoin="round"/>
  <circle cx="404" cy="206" r="10" fill="url(#hint)"/>
  <circle cx="366" cy="246" r="7" fill="#FFD6A1"/>

  <path d="M110 370 C168 328, 220 328, 292 366" fill="none" stroke="#7BD6FF" stroke-width="10" stroke-linecap="round" opacity="0.42" filter="url(#soft)"/>
</svg>
