<svg xmlns="http://www.w3.org/2000/svg" width="1200" height="720" viewBox="0 0 1200 720">
<style>text{font-family:Inter, sans-serif}</style>
<rect width="1200" height="720" fill="#FFFFFF"/>
<text x="40" y="60" font-size="36" font-weight="700" fill="#0B0B0C">LSP / IDE Flow</text>
<rect x="60" y="160" width="260" height="120" rx="12" fill="#F2F4F8" stroke="#6C5CE7" stroke-width="2"/>
<text x="80" y="200" font-size="18" fill="#0B0B0C">Editor</text>
<rect x="360" y="160" width="240" height="120" rx="12" fill="#F2F4F8" stroke="#6C5CE7" stroke-width="2"/>
<text x="380" y="200" font-size="18" fill="#0B0B0C">LSP Server</text>
<path d="M320 220.0 C 360 220.0 320 220.0 360 220.0" stroke="#00D1B2" stroke-width="3" fill="none" marker-end="url(#a)"/>
<rect x="640" y="160" width="200" height="120" rx="12" fill="#F2F4F8" stroke="#6C5CE7" stroke-width="2"/>
<text x="660" y="200" font-size="18" fill="#0B0B0C">Compiler Services</text>
<path d="M600 220.0 C 640 220.0 600 220.0 640 220.0" stroke="#00D1B2" stroke-width="3" fill="none" marker-end="url(#a)"/>
<rect x="880" y="160" width="240" height="120" rx="12" fill="#F2F4F8" stroke="#6C5CE7" stroke-width="2"/>
<text x="900" y="200" font-size="18" fill="#0B0B0C">Diagnostics/Code Actions</text>
<path d="M840 220.0 C 880 220.0 840 220.0 880 220.0" stroke="#00D1B2" stroke-width="3" fill="none" marker-end="url(#a)"/>
<defs><marker id="a" markerWidth="10" markerHeight="10" refX="6" refY="3" orient="auto"><path d="M0,0 L0,6 L6,3 z" fill="#00D1B2"/></marker></defs>
</svg>