<?xml version="1.0" encoding="UTF-8"?>
<svg xmlns="http://www.w3.org/2000/svg" width="780" height="338" viewBox="0 0 780 338">
<style>text{font-family:ui-monospace,SFMono-Regular,Menlo,Consolas,monospace;fill:#10243a;}.title{font-size:18px;font-weight:700;}.alt{font-size:13px;}.box{fill:#f6fbff;stroke:#4a90c2;stroke-width:1.2;rx:8;ry:8;}.line{stroke:#4a90c2;stroke-width:2;fill:none;}.dot{fill:#4a90c2;}</style>
<text x="20" y="30" class="title">literal</text>
<circle class="dot" cx="30" cy="66" r="5" />
<path class="line" d="M 35 66 L 96 66" />
<rect class="box" x="96" y="52" width="610" height="28" />
<text class="alt" x="106" y="71">bool_lit</text>
<path class="line" d="M 706 66 L 750 66" />
<circle class="dot" cx="756" cy="66" r="5" />
<circle class="dot" cx="30" cy="110" r="5" />
<path class="line" d="M 35 110 L 96 110" />
<rect class="box" x="96" y="96" width="610" height="28" />
<text class="alt" x="106" y="115">int_lit</text>
<path class="line" d="M 706 110 L 750 110" />
<circle class="dot" cx="756" cy="110" r="5" />
<circle class="dot" cx="30" cy="154" r="5" />
<path class="line" d="M 35 154 L 96 154" />
<rect class="box" x="96" y="140" width="610" height="28" />
<text class="alt" x="106" y="159">float_lit</text>
<path class="line" d="M 706 154 L 750 154" />
<circle class="dot" cx="756" cy="154" r="5" />
<circle class="dot" cx="30" cy="198" r="5" />
<path class="line" d="M 35 198 L 96 198" />
<rect class="box" x="96" y="184" width="610" height="28" />
<text class="alt" x="106" y="203">char_lit</text>
<path class="line" d="M 706 198 L 750 198" />
<circle class="dot" cx="756" cy="198" r="5" />
<circle class="dot" cx="30" cy="242" r="5" />
<path class="line" d="M 35 242 L 96 242" />
<rect class="box" x="96" y="228" width="610" height="28" />
<text class="alt" x="106" y="247">string_lit</text>
<path class="line" d="M 706 242 L 750 242" />
<circle class="dot" cx="756" cy="242" r="5" />
<circle class="dot" cx="30" cy="286" r="5" />
<path class="line" d="M 35 286 L 96 286" />
<rect class="box" x="96" y="272" width="610" height="28" />
<text class="alt" x="106" y="291">list_lit</text>
<path class="line" d="M 706 286 L 750 286" />
<circle class="dot" cx="756" cy="286" r="5" />
</svg>
