<?xml version="1.0" encoding="UTF-8"?>
<svg xmlns="http://www.w3.org/2000/svg" width="780" height="514" viewBox="0 0 780 514">
<style>text{font-family:ui-monospace,SFMono-Regular,Menlo,Consolas,monospace;fill:#10243a;}.title{font-size:18px;font-weight:700;}.alt{font-size:13px;}.box{fill:#f6fbff;stroke:#4a90c2;stroke-width:1.2;rx:8;ry:8;}.line{stroke:#4a90c2;stroke-width:2;fill:none;}.dot{fill:#4a90c2;}</style>
<text x="20" y="30" class="title">type_primary</text>
<circle class="dot" cx="30" cy="66" r="5" />
<path class="line" d="M 35 66 L 96 66" />
<rect class="box" x="96" y="52" width="610" height="28" />
<text class="alt" x="106" y="71">qualified_ident [ &quot;[&quot; WS? type_list? WS? &quot;]&quot; ]</text>
<path class="line" d="M 706 66 L 750 66" />
<circle class="dot" cx="756" cy="66" r="5" />
<circle class="dot" cx="30" cy="110" r="5" />
<path class="line" d="M 35 110 L 96 110" />
<rect class="box" x="96" y="96" width="610" height="28" />
<text class="alt" x="106" y="115">&quot;bool&quot;</text>
<path class="line" d="M 706 110 L 750 110" />
<circle class="dot" cx="756" cy="110" r="5" />
<circle class="dot" cx="30" cy="154" r="5" />
<path class="line" d="M 35 154 L 96 154" />
<rect class="box" x="96" y="140" width="610" height="28" />
<text class="alt" x="106" y="159">&quot;string&quot;</text>
<path class="line" d="M 706 154 L 750 154" />
<circle class="dot" cx="756" cy="154" r="5" />
<circle class="dot" cx="30" cy="198" r="5" />
<path class="line" d="M 35 198 L 96 198" />
<rect class="box" x="96" y="184" width="610" height="28" />
<text class="alt" x="106" y="203">&quot;int&quot;</text>
<path class="line" d="M 706 198 L 750 198" />
<circle class="dot" cx="756" cy="198" r="5" />
<circle class="dot" cx="30" cy="242" r="5" />
<path class="line" d="M 35 242 L 96 242" />
<rect class="box" x="96" y="228" width="610" height="28" />
<text class="alt" x="106" y="247">&quot;i32&quot;</text>
<path class="line" d="M 706 242 L 750 242" />
<circle class="dot" cx="756" cy="242" r="5" />
<circle class="dot" cx="30" cy="286" r="5" />
<path class="line" d="M 35 286 L 96 286" />
<rect class="box" x="96" y="272" width="610" height="28" />
<text class="alt" x="106" y="291">&quot;i64&quot;</text>
<path class="line" d="M 706 286 L 750 286" />
<circle class="dot" cx="756" cy="286" r="5" />
<circle class="dot" cx="30" cy="330" r="5" />
<path class="line" d="M 35 330 L 96 330" />
<rect class="box" x="96" y="316" width="610" height="28" />
<text class="alt" x="106" y="335">&quot;i128&quot;</text>
<path class="line" d="M 706 330 L 750 330" />
<circle class="dot" cx="756" cy="330" r="5" />
<circle class="dot" cx="30" cy="374" r="5" />
<path class="line" d="M 35 374 L 96 374" />
<rect class="box" x="96" y="360" width="610" height="28" />
<text class="alt" x="106" y="379">&quot;u32&quot;</text>
<path class="line" d="M 706 374 L 750 374" />
<circle class="dot" cx="756" cy="374" r="5" />
<circle class="dot" cx="30" cy="418" r="5" />
<path class="line" d="M 35 418 L 96 418" />
<rect class="box" x="96" y="404" width="610" height="28" />
<text class="alt" x="106" y="423">&quot;u64&quot;</text>
<path class="line" d="M 706 418 L 750 418" />
<circle class="dot" cx="756" cy="418" r="5" />
<circle class="dot" cx="30" cy="462" r="5" />
<path class="line" d="M 35 462 L 96 462" />
<rect class="box" x="96" y="448" width="610" height="28" />
<text class="alt" x="106" y="467">&quot;u128&quot;</text>
<path class="line" d="M 706 462 L 750 462" />
<circle class="dot" cx="756" cy="462" r="5" />
</svg>
