<svg xmlns="http://www.w3.org/2000/svg" width="1200" height="720" viewBox="0 0 1200 720">
<style>text{font-family:Inter, sans-serif}</style>
<rect width="1200" height="720" fill="#FFFFFF"/>
<text x="40" y="60" font-size="36" font-weight="700" fill="#0B0B0C">Compiler Pipeline</text>
<rect x="60" y="140" width="200" height="120" rx="12" fill="#F2F4F8" stroke="#6C5CE7" stroke-width="2"/>
<text x="80" y="180" font-size="18" fill="#0B0B0C">Tokenizer</text>
<rect x="300" y="140" width="200" height="120" rx="12" fill="#F2F4F8" stroke="#6C5CE7" stroke-width="2"/>
<text x="320" y="180" font-size="18" fill="#0B0B0C">Parser</text>
<path d="M260 200.0 C 300 200.0 260 200.0 300 200.0" stroke="#00D1B2" stroke-width="3" fill="none" marker-end="url(#a)"/>
<rect x="540" y="140" width="220" height="120" rx="12" fill="#F2F4F8" stroke="#6C5CE7" stroke-width="2"/>
<text x="560" y="180" font-size="18" fill="#0B0B0C">Type checker</text>
<path d="M500 200.0 C 540 200.0 500 200.0 540 200.0" stroke="#00D1B2" stroke-width="3" fill="none" marker-end="url(#a)"/>
<rect x="800" y="140" width="220" height="120" rx="12" fill="#F2F4F8" stroke="#6C5CE7" stroke-width="2"/>
<text x="820" y="180" font-size="18" fill="#0B0B0C">IR/Optimizer</text>
<path d="M760 200.0 C 800 200.0 760 200.0 800 200.0" stroke="#00D1B2" stroke-width="3" fill="none" marker-end="url(#a)"/>
<rect x="1060" y="140" width="80" height="120" rx="12" fill="#F2F4F8" stroke="#6C5CE7" stroke-width="2"/>
<text x="1080" y="180" font-size="18" fill="#0B0B0C">Codegen</text>
<path d="M1020 200.0 C 1060 200.0 1020 200.0 1060 200.0" stroke="#00D1B2" stroke-width="3" fill="none" marker-end="url(#a)"/>
<defs><marker id="a" markerWidth="10" markerHeight="10" refX="6" refY="3" orient="auto"><path d="M0,0 L0,6 L6,3 z" fill="#00D1B2"/></marker></defs>
</svg>