<?xml version="1.0" encoding="UTF-8"?>
<svg xmlns="http://www.w3.org/2000/svg" width="808" height="294" viewBox="0 0 808 294">
<style>text{font-family:ui-monospace,SFMono-Regular,Menlo,Consolas,monospace;fill:#10243a;}.title{font-size:18px;font-weight:700;}.alt{font-size:13px;}.box{fill:#f6fbff;stroke:#4a90c2;stroke-width:1.2;rx:8;ry:8;}.line{stroke:#4a90c2;stroke-width:2;fill:none;}.dot{fill:#4a90c2;}</style>
<text x="20" y="30" class="title">escape_seq</text>
<circle class="dot" cx="30" cy="66" r="5" />
<path class="line" d="M 35 66 L 96 66" />
<rect class="box" x="96" y="52" width="638" height="28" />
<text class="alt" x="106" y="71">&quot;\\n&quot;</text>
<path class="line" d="M 734 66 L 778 66" />
<circle class="dot" cx="784" cy="66" r="5" />
<circle class="dot" cx="30" cy="110" r="5" />
<path class="line" d="M 35 110 L 96 110" />
<rect class="box" x="96" y="96" width="638" height="28" />
<text class="alt" x="106" y="115">&quot;\\r&quot;</text>
<path class="line" d="M 734 110 L 778 110" />
<circle class="dot" cx="784" cy="110" r="5" />
<circle class="dot" cx="30" cy="154" r="5" />
<path class="line" d="M 35 154 L 96 154" />
<rect class="box" x="96" y="140" width="638" height="28" />
<text class="alt" x="106" y="159">&quot;\\t&quot;</text>
<path class="line" d="M 734 154 L 778 154" />
<circle class="dot" cx="784" cy="154" r="5" />
<circle class="dot" cx="30" cy="198" r="5" />
<path class="line" d="M 35 198 L 96 198" />
<rect class="box" x="96" y="184" width="638" height="28" />
<text class="alt" x="106" y="203">&quot;\\0&quot;</text>
<path class="line" d="M 734 198 L 778 198" />
<circle class="dot" cx="784" cy="198" r="5" />
<circle class="dot" cx="30" cy="242" r="5" />
<path class="line" d="M 35 242 L 96 242" />
<rect class="box" x="96" y="228" width="638" height="28" />
<text class="alt" x="106" y="247">&quot;\\\&quot;&quot; | &quot;\\&#x27;&quot; | &quot;\\\\&quot; | &quot;\\x&quot; HEXDIGIT HEXDIGIT | &quot;\\u{&quot; HEXDIGIT { HEXDIGIT } &quot;}&quot;</text>
<path class="line" d="M 734 242 L 778 242" />
<circle class="dot" cx="784" cy="242" r="5" />
</svg>
