<?xml version="1.0" encoding="UTF-8"?>
<svg xmlns="http://www.w3.org/2000/svg" width="780" height="2098" viewBox="0 0 780 2098">
<style>text{font-family:ui-monospace,SFMono-Regular,Menlo,Consolas,monospace;fill:#10243a;}.title{font-size:18px;font-weight:700;}.alt{font-size:13px;}.box{fill:#f6fbff;stroke:#4a90c2;stroke-width:1.2;rx:8;ry:8;}.line{stroke:#4a90c2;stroke-width:2;fill:none;}.dot{fill:#4a90c2;}</style>
<text x="20" y="30" class="title">primitive_type</text>
<circle class="dot" cx="30" cy="66" r="5" />
<path class="line" d="M 35 66 L 96 66" />
<rect class="box" x="96" y="52" width="610" height="28" />
<text class="alt" x="106" y="71">&quot;void&quot;</text>
<path class="line" d="M 706 66 L 750 66" />
<circle class="dot" cx="756" cy="66" r="5" />
<circle class="dot" cx="30" cy="110" r="5" />
<path class="line" d="M 35 110 L 96 110" />
<rect class="box" x="96" y="96" width="610" height="28" />
<text class="alt" x="106" y="115">&quot;never&quot;</text>
<path class="line" d="M 706 110 L 750 110" />
<circle class="dot" cx="756" cy="110" r="5" />
<circle class="dot" cx="30" cy="154" r="5" />
<path class="line" d="M 35 154 L 96 154" />
<rect class="box" x="96" y="140" width="610" height="28" />
<text class="alt" x="106" y="159">&quot;unit&quot;</text>
<path class="line" d="M 706 154 L 750 154" />
<circle class="dot" cx="756" cy="154" r="5" />
<circle class="dot" cx="30" cy="198" r="5" />
<path class="line" d="M 35 198 L 96 198" />
<rect class="box" x="96" y="184" width="610" height="28" />
<text class="alt" x="106" y="203">&quot;bool&quot;</text>
<path class="line" d="M 706 198 L 750 198" />
<circle class="dot" cx="756" cy="198" r="5" />
<circle class="dot" cx="30" cy="242" r="5" />
<path class="line" d="M 35 242 L 96 242" />
<rect class="box" x="96" y="228" width="610" height="28" />
<text class="alt" x="106" y="247">&quot;char&quot;</text>
<path class="line" d="M 706 242 L 750 242" />
<circle class="dot" cx="756" cy="242" r="5" />
<circle class="dot" cx="30" cy="286" r="5" />
<path class="line" d="M 35 286 L 96 286" />
<rect class="box" x="96" y="272" width="610" height="28" />
<text class="alt" x="106" y="291">&quot;rune&quot;</text>
<path class="line" d="M 706 286 L 750 286" />
<circle class="dot" cx="756" cy="286" r="5" />
<circle class="dot" cx="30" cy="330" r="5" />
<path class="line" d="M 35 330 L 96 330" />
<rect class="box" x="96" y="316" width="610" height="28" />
<text class="alt" x="106" y="335">&quot;str&quot;</text>
<path class="line" d="M 706 330 L 750 330" />
<circle class="dot" cx="756" cy="330" r="5" />
<circle class="dot" cx="30" cy="374" r="5" />
<path class="line" d="M 35 374 L 96 374" />
<rect class="box" x="96" y="360" width="610" height="28" />
<text class="alt" x="106" y="379">&quot;string&quot;</text>
<path class="line" d="M 706 374 L 750 374" />
<circle class="dot" cx="756" cy="374" r="5" />
<circle class="dot" cx="30" cy="418" r="5" />
<path class="line" d="M 35 418 L 96 418" />
<rect class="box" x="96" y="404" width="610" height="28" />
<text class="alt" x="106" y="423">&quot;bytes&quot;</text>
<path class="line" d="M 706 418 L 750 418" />
<circle class="dot" cx="756" cy="418" r="5" />
<circle class="dot" cx="30" cy="462" r="5" />
<path class="line" d="M 35 462 L 96 462" />
<rect class="box" x="96" y="448" width="610" height="28" />
<text class="alt" x="106" y="467">&quot;cstr&quot;</text>
<path class="line" d="M 706 462 L 750 462" />
<circle class="dot" cx="756" cy="462" r="5" />
<circle class="dot" cx="30" cy="506" r="5" />
<path class="line" d="M 35 506 L 96 506" />
<rect class="box" x="96" y="492" width="610" height="28" />
<text class="alt" x="106" y="511">&quot;int&quot;</text>
<path class="line" d="M 706 506 L 750 506" />
<circle class="dot" cx="756" cy="506" r="5" />
<circle class="dot" cx="30" cy="550" r="5" />
<path class="line" d="M 35 550 L 96 550" />
<rect class="box" x="96" y="536" width="610" height="28" />
<text class="alt" x="106" y="555">&quot;i8&quot;</text>
<path class="line" d="M 706 550 L 750 550" />
<circle class="dot" cx="756" cy="550" r="5" />
<circle class="dot" cx="30" cy="594" r="5" />
<path class="line" d="M 35 594 L 96 594" />
<rect class="box" x="96" y="580" width="610" height="28" />
<text class="alt" x="106" y="599">&quot;i16&quot;</text>
<path class="line" d="M 706 594 L 750 594" />
<circle class="dot" cx="756" cy="594" r="5" />
<circle class="dot" cx="30" cy="638" r="5" />
<path class="line" d="M 35 638 L 96 638" />
<rect class="box" x="96" y="624" width="610" height="28" />
<text class="alt" x="106" y="643">&quot;i32&quot;</text>
<path class="line" d="M 706 638 L 750 638" />
<circle class="dot" cx="756" cy="638" r="5" />
<circle class="dot" cx="30" cy="682" r="5" />
<path class="line" d="M 35 682 L 96 682" />
<rect class="box" x="96" y="668" width="610" height="28" />
<text class="alt" x="106" y="687">&quot;i64&quot;</text>
<path class="line" d="M 706 682 L 750 682" />
<circle class="dot" cx="756" cy="682" r="5" />
<circle class="dot" cx="30" cy="726" r="5" />
<path class="line" d="M 35 726 L 96 726" />
<rect class="box" x="96" y="712" width="610" height="28" />
<text class="alt" x="106" y="731">&quot;i128&quot;</text>
<path class="line" d="M 706 726 L 750 726" />
<circle class="dot" cx="756" cy="726" r="5" />
<circle class="dot" cx="30" cy="770" r="5" />
<path class="line" d="M 35 770 L 96 770" />
<rect class="box" x="96" y="756" width="610" height="28" />
<text class="alt" x="106" y="775">&quot;u8&quot;</text>
<path class="line" d="M 706 770 L 750 770" />
<circle class="dot" cx="756" cy="770" r="5" />
<circle class="dot" cx="30" cy="814" r="5" />
<path class="line" d="M 35 814 L 96 814" />
<rect class="box" x="96" y="800" width="610" height="28" />
<text class="alt" x="106" y="819">&quot;u16&quot;</text>
<path class="line" d="M 706 814 L 750 814" />
<circle class="dot" cx="756" cy="814" r="5" />
<circle class="dot" cx="30" cy="858" r="5" />
<path class="line" d="M 35 858 L 96 858" />
<rect class="box" x="96" y="844" width="610" height="28" />
<text class="alt" x="106" y="863">&quot;u32&quot;</text>
<path class="line" d="M 706 858 L 750 858" />
<circle class="dot" cx="756" cy="858" r="5" />
<circle class="dot" cx="30" cy="902" r="5" />
<path class="line" d="M 35 902 L 96 902" />
<rect class="box" x="96" y="888" width="610" height="28" />
<text class="alt" x="106" y="907">&quot;u64&quot;</text>
<path class="line" d="M 706 902 L 750 902" />
<circle class="dot" cx="756" cy="902" r="5" />
<circle class="dot" cx="30" cy="946" r="5" />
<path class="line" d="M 35 946 L 96 946" />
<rect class="box" x="96" y="932" width="610" height="28" />
<text class="alt" x="106" y="951">&quot;u128&quot;</text>
<path class="line" d="M 706 946 L 750 946" />
<circle class="dot" cx="756" cy="946" r="5" />
<circle class="dot" cx="30" cy="990" r="5" />
<path class="line" d="M 35 990 L 96 990" />
<rect class="box" x="96" y="976" width="610" height="28" />
<text class="alt" x="106" y="995">&quot;usize&quot;</text>
<path class="line" d="M 706 990 L 750 990" />
<circle class="dot" cx="756" cy="990" r="5" />
<circle class="dot" cx="30" cy="1034" r="5" />
<path class="line" d="M 35 1034 L 96 1034" />
<rect class="box" x="96" y="1020" width="610" height="28" />
<text class="alt" x="106" y="1039">&quot;isize&quot;</text>
<path class="line" d="M 706 1034 L 750 1034" />
<circle class="dot" cx="756" cy="1034" r="5" />
<circle class="dot" cx="30" cy="1078" r="5" />
<path class="line" d="M 35 1078 L 96 1078" />
<rect class="box" x="96" y="1064" width="610" height="28" />
<text class="alt" x="106" y="1083">&quot;intptr&quot;</text>
<path class="line" d="M 706 1078 L 750 1078" />
<circle class="dot" cx="756" cy="1078" r="5" />
<circle class="dot" cx="30" cy="1122" r="5" />
<path class="line" d="M 35 1122 L 96 1122" />
<rect class="box" x="96" y="1108" width="610" height="28" />
<text class="alt" x="106" y="1127">&quot;uintptr&quot;</text>
<path class="line" d="M 706 1122 L 750 1122" />
<circle class="dot" cx="756" cy="1122" r="5" />
<circle class="dot" cx="30" cy="1166" r="5" />
<path class="line" d="M 35 1166 L 96 1166" />
<rect class="box" x="96" y="1152" width="610" height="28" />
<text class="alt" x="106" y="1171">&quot;f16&quot;</text>
<path class="line" d="M 706 1166 L 750 1166" />
<circle class="dot" cx="756" cy="1166" r="5" />
<circle class="dot" cx="30" cy="1210" r="5" />
<path class="line" d="M 35 1210 L 96 1210" />
<rect class="box" x="96" y="1196" width="610" height="28" />
<text class="alt" x="106" y="1215">&quot;f32&quot;</text>
<path class="line" d="M 706 1210 L 750 1210" />
<circle class="dot" cx="756" cy="1210" r="5" />
<circle class="dot" cx="30" cy="1254" r="5" />
<path class="line" d="M 35 1254 L 96 1254" />
<rect class="box" x="96" y="1240" width="610" height="28" />
<text class="alt" x="106" y="1259">&quot;f64&quot;</text>
<path class="line" d="M 706 1254 L 750 1254" />
<circle class="dot" cx="756" cy="1254" r="5" />
<circle class="dot" cx="30" cy="1298" r="5" />
<path class="line" d="M 35 1298 L 96 1298" />
<rect class="box" x="96" y="1284" width="610" height="28" />
<text class="alt" x="106" y="1303">&quot;f128&quot;</text>
<path class="line" d="M 706 1298 L 750 1298" />
<circle class="dot" cx="756" cy="1298" r="5" />
<circle class="dot" cx="30" cy="1342" r="5" />
<path class="line" d="M 35 1342 L 96 1342" />
<rect class="box" x="96" y="1328" width="610" height="28" />
<text class="alt" x="106" y="1347">&quot;c_char&quot;</text>
<path class="line" d="M 706 1342 L 750 1342" />
<circle class="dot" cx="756" cy="1342" r="5" />
<circle class="dot" cx="30" cy="1386" r="5" />
<path class="line" d="M 35 1386 L 96 1386" />
<rect class="box" x="96" y="1372" width="610" height="28" />
<text class="alt" x="106" y="1391">&quot;c_int&quot;</text>
<path class="line" d="M 706 1386 L 750 1386" />
<circle class="dot" cx="756" cy="1386" r="5" />
<circle class="dot" cx="30" cy="1430" r="5" />
<path class="line" d="M 35 1430 L 96 1430" />
<rect class="box" x="96" y="1416" width="610" height="28" />
<text class="alt" x="106" y="1435">&quot;c_uint&quot;</text>
<path class="line" d="M 706 1430 L 750 1430" />
<circle class="dot" cx="756" cy="1430" r="5" />
<circle class="dot" cx="30" cy="1474" r="5" />
<path class="line" d="M 35 1474 L 96 1474" />
<rect class="box" x="96" y="1460" width="610" height="28" />
<text class="alt" x="106" y="1479">&quot;c_long&quot;</text>
<path class="line" d="M 706 1474 L 750 1474" />
<circle class="dot" cx="756" cy="1474" r="5" />
<circle class="dot" cx="30" cy="1518" r="5" />
<path class="line" d="M 35 1518 L 96 1518" />
<rect class="box" x="96" y="1504" width="610" height="28" />
<text class="alt" x="106" y="1523">&quot;c_ulong&quot;</text>
<path class="line" d="M 706 1518 L 750 1518" />
<circle class="dot" cx="756" cy="1518" r="5" />
<circle class="dot" cx="30" cy="1562" r="5" />
<path class="line" d="M 35 1562 L 96 1562" />
<rect class="box" x="96" y="1548" width="610" height="28" />
<text class="alt" x="106" y="1567">&quot;c_void&quot;</text>
<path class="line" d="M 706 1562 L 750 1562" />
<circle class="dot" cx="756" cy="1562" r="5" />
<circle class="dot" cx="30" cy="1606" r="5" />
<path class="line" d="M 35 1606 L 96 1606" />
<rect class="box" x="96" y="1592" width="610" height="28" />
<text class="alt" x="106" y="1611">&quot;TokenId&quot;</text>
<path class="line" d="M 706 1606 L 750 1606" />
<circle class="dot" cx="756" cy="1606" r="5" />
<circle class="dot" cx="30" cy="1650" r="5" />
<path class="line" d="M 35 1650 L 96 1650" />
<rect class="box" x="96" y="1636" width="610" height="28" />
<text class="alt" x="106" y="1655">&quot;NodeId&quot;</text>
<path class="line" d="M 706 1650 L 750 1650" />
<circle class="dot" cx="756" cy="1650" r="5" />
<circle class="dot" cx="30" cy="1694" r="5" />
<path class="line" d="M 35 1694 L 96 1694" />
<rect class="box" x="96" y="1680" width="610" height="28" />
<text class="alt" x="106" y="1699">&quot;DefId&quot;</text>
<path class="line" d="M 706 1694 L 750 1694" />
<circle class="dot" cx="756" cy="1694" r="5" />
<circle class="dot" cx="30" cy="1738" r="5" />
<path class="line" d="M 35 1738 L 96 1738" />
<rect class="box" x="96" y="1724" width="610" height="28" />
<text class="alt" x="106" y="1743">&quot;HirId&quot;</text>
<path class="line" d="M 706 1738 L 750 1738" />
<circle class="dot" cx="756" cy="1738" r="5" />
<circle class="dot" cx="30" cy="1782" r="5" />
<path class="line" d="M 35 1782 L 96 1782" />
<rect class="box" x="96" y="1768" width="610" height="28" />
<text class="alt" x="106" y="1787">&quot;MirId&quot;</text>
<path class="line" d="M 706 1782 L 750 1782" />
<circle class="dot" cx="756" cy="1782" r="5" />
<circle class="dot" cx="30" cy="1826" r="5" />
<path class="line" d="M 35 1826 L 96 1826" />
<rect class="box" x="96" y="1812" width="610" height="28" />
<text class="alt" x="106" y="1831">&quot;TypeId&quot;</text>
<path class="line" d="M 706 1826 L 750 1826" />
<circle class="dot" cx="756" cy="1826" r="5" />
<circle class="dot" cx="30" cy="1870" r="5" />
<path class="line" d="M 35 1870 L 96 1870" />
<rect class="box" x="96" y="1856" width="610" height="28" />
<text class="alt" x="106" y="1875">&quot;SymbolId&quot;</text>
<path class="line" d="M 706 1870 L 750 1870" />
<circle class="dot" cx="756" cy="1870" r="5" />
<circle class="dot" cx="30" cy="1914" r="5" />
<path class="line" d="M 35 1914 L 96 1914" />
<rect class="box" x="96" y="1900" width="610" height="28" />
<text class="alt" x="106" y="1919">&quot;ScopeId&quot;</text>
<path class="line" d="M 706 1914 L 750 1914" />
<circle class="dot" cx="756" cy="1914" r="5" />
<circle class="dot" cx="30" cy="1958" r="5" />
<path class="line" d="M 35 1958 L 96 1958" />
<rect class="box" x="96" y="1944" width="610" height="28" />
<text class="alt" x="106" y="1963">&quot;BlockId&quot;</text>
<path class="line" d="M 706 1958 L 750 1958" />
<circle class="dot" cx="756" cy="1958" r="5" />
<circle class="dot" cx="30" cy="2002" r="5" />
<path class="line" d="M 35 2002 L 96 2002" />
<rect class="box" x="96" y="1988" width="610" height="28" />
<text class="alt" x="106" y="2007">&quot;ValueId&quot;</text>
<path class="line" d="M 706 2002 L 750 2002" />
<circle class="dot" cx="756" cy="2002" r="5" />
<circle class="dot" cx="30" cy="2046" r="5" />
<path class="line" d="M 35 2046 L 96 2046" />
<rect class="box" x="96" y="2032" width="610" height="28" />
<text class="alt" x="106" y="2051">&quot;InstrId&quot;</text>
<path class="line" d="M 706 2046 L 750 2046" />
<circle class="dot" cx="756" cy="2046" r="5" />
</svg>
