<?xml version="1.0" encoding="UTF-8"?>
<svg xmlns="http://www.w3.org/2000/svg" width="780" height="1130" viewBox="0 0 780 1130">
<style>text{font-family:ui-monospace,SFMono-Regular,Menlo,Consolas,monospace;fill:#10243a;}.title{font-size:18px;font-weight:700;}.alt{font-size:13px;}.box{fill:#f6fbff;stroke:#4a90c2;stroke-width:1.2;rx:8;ry:8;}.line{stroke:#4a90c2;stroke-width:2;fill:none;}.dot{fill:#4a90c2;}</style>
<text x="20" y="30" class="title">stmt</text>
<circle class="dot" cx="30" cy="66" r="5" />
<path class="line" d="M 35 66 L 96 66" />
<rect class="box" x="96" y="52" width="610" height="28" />
<text class="alt" x="106" y="71">local_const_stmt stmt_end</text>
<path class="line" d="M 706 66 L 750 66" />
<circle class="dot" cx="756" cy="66" r="5" />
<circle class="dot" cx="30" cy="110" r="5" />
<path class="line" d="M 35 110 L 96 110" />
<rect class="box" x="96" y="96" width="610" height="28" />
<text class="alt" x="106" y="115">let_stmt stmt_end</text>
<path class="line" d="M 706 110 L 750 110" />
<circle class="dot" cx="756" cy="110" r="5" />
<circle class="dot" cx="30" cy="154" r="5" />
<path class="line" d="M 35 154 L 96 154" />
<rect class="box" x="96" y="140" width="610" height="28" />
<text class="alt" x="106" y="159">set_stmt stmt_end</text>
<path class="line" d="M 706 154 L 750 154" />
<circle class="dot" cx="756" cy="154" r="5" />
<circle class="dot" cx="30" cy="198" r="5" />
<path class="line" d="M 35 198 L 96 198" />
<rect class="box" x="96" y="184" width="610" height="28" />
<text class="alt" x="106" y="203">give_stmt stmt_end</text>
<path class="line" d="M 706 198 L 750 198" />
<circle class="dot" cx="756" cy="198" r="5" />
<circle class="dot" cx="30" cy="242" r="5" />
<path class="line" d="M 35 242 L 96 242" />
<rect class="box" x="96" y="228" width="610" height="28" />
<text class="alt" x="106" y="247">try_stmt stmt_end</text>
<path class="line" d="M 706 242 L 750 242" />
<circle class="dot" cx="756" cy="242" r="5" />
<circle class="dot" cx="30" cy="286" r="5" />
<path class="line" d="M 35 286 L 96 286" />
<rect class="box" x="96" y="272" width="610" height="28" />
<text class="alt" x="106" y="291">defer_stmt</text>
<path class="line" d="M 706 286 L 750 286" />
<circle class="dot" cx="756" cy="286" r="5" />
<circle class="dot" cx="30" cy="330" r="5" />
<path class="line" d="M 35 330 L 96 330" />
<rect class="box" x="96" y="316" width="610" height="28" />
<text class="alt" x="106" y="335">asm_stmt stmt_end</text>
<path class="line" d="M 706 330 L 750 330" />
<circle class="dot" cx="756" cy="330" r="5" />
<circle class="dot" cx="30" cy="374" r="5" />
<path class="line" d="M 35 374 L 96 374" />
<rect class="box" x="96" y="360" width="610" height="28" />
<text class="alt" x="106" y="379">unsafe_stmt</text>
<path class="line" d="M 706 374 L 750 374" />
<circle class="dot" cx="756" cy="374" r="5" />
<circle class="dot" cx="30" cy="418" r="5" />
<path class="line" d="M 35 418 L 96 418" />
<rect class="box" x="96" y="404" width="610" height="28" />
<text class="alt" x="106" y="423">emit_stmt stmt_end</text>
<path class="line" d="M 706 418 L 750 418" />
<circle class="dot" cx="756" cy="418" r="5" />
<circle class="dot" cx="30" cy="462" r="5" />
<path class="line" d="M 35 462 L 96 462" />
<rect class="box" x="96" y="448" width="610" height="28" />
<text class="alt" x="106" y="467">assert_stmt stmt_end</text>
<path class="line" d="M 706 462 L 750 462" />
<circle class="dot" cx="756" cy="462" r="5" />
<circle class="dot" cx="30" cy="506" r="5" />
<path class="line" d="M 35 506 L 96 506" />
<rect class="box" x="96" y="492" width="610" height="28" />
<text class="alt" x="106" y="511">panic_stmt stmt_end</text>
<path class="line" d="M 706 506 L 750 506" />
<circle class="dot" cx="756" cy="506" r="5" />
<circle class="dot" cx="30" cy="550" r="5" />
<path class="line" d="M 35 550 L 96 550" />
<rect class="box" x="96" y="536" width="610" height="28" />
<text class="alt" x="106" y="555">unreachable_stmt stmt_end</text>
<path class="line" d="M 706 550 L 750 550" />
<circle class="dot" cx="756" cy="550" r="5" />
<circle class="dot" cx="30" cy="594" r="5" />
<path class="line" d="M 35 594 L 96 594" />
<rect class="box" x="96" y="580" width="610" height="28" />
<text class="alt" x="106" y="599">if_stmt</text>
<path class="line" d="M 706 594 L 750 594" />
<circle class="dot" cx="756" cy="594" r="5" />
<circle class="dot" cx="30" cy="638" r="5" />
<path class="line" d="M 35 638 L 96 638" />
<rect class="box" x="96" y="624" width="610" height="28" />
<text class="alt" x="106" y="643">while_stmt</text>
<path class="line" d="M 706 638 L 750 638" />
<circle class="dot" cx="756" cy="638" r="5" />
<circle class="dot" cx="30" cy="682" r="5" />
<path class="line" d="M 35 682 L 96 682" />
<rect class="box" x="96" y="668" width="610" height="28" />
<text class="alt" x="106" y="687">loop_stmt</text>
<path class="line" d="M 706 682 L 750 682" />
<circle class="dot" cx="756" cy="682" r="5" />
<circle class="dot" cx="30" cy="726" r="5" />
<path class="line" d="M 35 726 L 96 726" />
<rect class="box" x="96" y="712" width="610" height="28" />
<text class="alt" x="106" y="731">for_stmt</text>
<path class="line" d="M 706 726 L 750 726" />
<circle class="dot" cx="756" cy="726" r="5" />
<circle class="dot" cx="30" cy="770" r="5" />
<path class="line" d="M 35 770 L 96 770" />
<rect class="box" x="96" y="756" width="610" height="28" />
<text class="alt" x="106" y="775">break_stmt stmt_end</text>
<path class="line" d="M 706 770 L 750 770" />
<circle class="dot" cx="756" cy="770" r="5" />
<circle class="dot" cx="30" cy="814" r="5" />
<path class="line" d="M 35 814 L 96 814" />
<rect class="box" x="96" y="800" width="610" height="28" />
<text class="alt" x="106" y="819">continue_stmt stmt_end</text>
<path class="line" d="M 706 814 L 750 814" />
<circle class="dot" cx="756" cy="814" r="5" />
<circle class="dot" cx="30" cy="858" r="5" />
<path class="line" d="M 35 858 L 96 858" />
<rect class="box" x="96" y="844" width="610" height="28" />
<text class="alt" x="106" y="863">select_stmt</text>
<path class="line" d="M 706 858 L 750 858" />
<circle class="dot" cx="756" cy="858" r="5" />
<circle class="dot" cx="30" cy="902" r="5" />
<path class="line" d="M 35 902 L 96 902" />
<rect class="box" x="96" y="888" width="610" height="28" />
<text class="alt" x="106" y="907">match_stmt</text>
<path class="line" d="M 706 902 L 750 902" />
<circle class="dot" cx="756" cy="902" r="5" />
<circle class="dot" cx="30" cy="946" r="5" />
<path class="line" d="M 35 946 L 96 946" />
<rect class="box" x="96" y="932" width="610" height="28" />
<text class="alt" x="106" y="951">when_match_stmt</text>
<path class="line" d="M 706 946 L 750 946" />
<circle class="dot" cx="756" cy="946" r="5" />
<circle class="dot" cx="30" cy="990" r="5" />
<path class="line" d="M 35 990 L 96 990" />
<rect class="box" x="96" y="976" width="610" height="28" />
<text class="alt" x="106" y="995">with_stmt</text>
<path class="line" d="M 706 990 L 750 990" />
<circle class="dot" cx="756" cy="990" r="5" />
<circle class="dot" cx="30" cy="1034" r="5" />
<path class="line" d="M 35 1034 L 96 1034" />
<rect class="box" x="96" y="1020" width="610" height="28" />
<text class="alt" x="106" y="1039">critical_stmt</text>
<path class="line" d="M 706 1034 L 750 1034" />
<circle class="dot" cx="756" cy="1034" r="5" />
<circle class="dot" cx="30" cy="1078" r="5" />
<path class="line" d="M 35 1078 L 96 1078" />
<rect class="box" x="96" y="1064" width="610" height="28" />
<text class="alt" x="106" y="1083">expr_stmt stmt_end</text>
<path class="line" d="M 706 1078 L 750 1078" />
<circle class="dot" cx="756" cy="1078" r="5" />
</svg>
