<svg
  width="1280"
  height="760"
  viewBox="0 0 1280 760"
  fill="none"
  xmlns="http://www.w3.org/2000/svg"
  role="img"
  aria-labelledby="title desc"
>
  <title id="title">Vitte README visual</title>
  <desc id="desc">
    A landing visual for the Vitte repository with two stacked terminal windows,
    a compiler pipeline, a before and after diagnostics comparison, and a Vitte syntax sample.
  </desc>

  <!-- Shared paint, shadow, and typography -->
  <defs>
    <linearGradient id="bg" x1="74" y1="44" x2="1208" y2="706" gradientUnits="userSpaceOnUse">
      <stop stop-color="#0A1222"/>
      <stop offset="0.45" stop-color="#10203A"/>
      <stop offset="1" stop-color="#15445D"/>
    </linearGradient>
    <linearGradient id="paper" x1="0" y1="0" x2="1" y2="1">
      <stop stop-color="#F6EFE5" stop-opacity="0.98"/>
      <stop offset="1" stop-color="#FFFFFF" stop-opacity="0.96"/>
    </linearGradient>
    <linearGradient id="terminal" x1="0" y1="0" x2="1" y2="1">
      <stop stop-color="#0C1728"/>
      <stop offset="1" stop-color="#10263B"/>
    </linearGradient>
    <linearGradient id="accent" x1="0" y1="0" x2="1" y2="1">
      <stop stop-color="#FFB54A"/>
      <stop offset="1" stop-color="#FF6B3D"/>
    </linearGradient>
    <linearGradient id="chip" x1="0" y1="0" x2="1" y2="1">
      <stop stop-color="#133452"/>
      <stop offset="1" stop-color="#0F6670"/>
    </linearGradient>
    <filter
      id="shadow"
      x="96"
      y="84"
      width="1096"
      height="580"
      filterUnits="userSpaceOnUse"
      color-interpolation-filters="sRGB"
    >
      <feFlood flood-opacity="0" result="BackgroundImageFix"/>
      <feColorMatrix
        in="SourceAlpha"
        type="matrix"
        values="0 0 0 0 0 0 0 0 0 0 0 0 0 0 0 0 0 0 127 0"
        result="hardAlpha"
      />
      <feOffset dy="24"/>
      <feGaussianBlur stdDeviation="28"/>
      <feColorMatrix
        type="matrix"
        values="0 0 0 0 0.0196078 0 0 0 0 0.0509804 0 0 0 0 0.101961 0 0 0 0.28 0"
      />
      <feBlend mode="normal" in2="BackgroundImageFix" result="effect1_dropShadow_1_1"/>
      <feBlend mode="normal" in="SourceGraphic" in2="effect1_dropShadow_1_1" result="shape"/>
    </filter>
    <style>
      .title { font: 700 82px Georgia, 'Times New Roman', serif; fill: #102139; }
      .subtitle { font: 600 27px 'Avenir Next', 'Segoe UI', sans-serif; fill: #26445B; }
      .body { font: 500 20px 'Avenir Next', 'Segoe UI', sans-serif; fill: #617487; }
      .ui { font: 700 14px 'Avenir Next', 'Segoe UI', sans-serif; }
      .chipText { font: 700 17px 'Avenir Next', 'Segoe UI', sans-serif; }
      .mono { font: 500 17px 'SFMono-Regular', Consolas, 'Liberation Mono', Menlo, monospace; }
      .monoBold { font: 700 17px 'SFMono-Regular', Consolas, 'Liberation Mono', Menlo, monospace; }
      .label { font: 700 15px 'Avenir Next', 'Segoe UI', sans-serif; }
    </style>
  </defs>

  <!-- Background -->
  <g id="background">
    <rect width="1280" height="760" rx="28" fill="url(#bg)"/>
    <circle cx="184" cy="642" r="176" fill="#FF7A59" fill-opacity="0.12"/>
    <circle cx="1094" cy="118" r="184" fill="#1E7683" fill-opacity="0.17"/>
    <path
      d="M96 564C246 454 374 462 518 556"
      stroke="#F8F2EA"
      stroke-opacity="0.08"
      stroke-width="2"
    />
    <path
      d="M786 104C930 206 1042 212 1184 116"
      stroke="#F8F2EA"
      stroke-opacity="0.08"
      stroke-width="2"
    />
  </g>

  <!-- Main card -->
  <g id="main-card">
    <g filter="url(#shadow)">
      <rect x="124" y="112" width="1040" height="516" rx="30" fill="url(#paper)"/>
    </g>
  </g>

  <!-- Left introduction block -->
  <g id="intro">
    <rect x="164" y="148" width="170" height="40" rx="20" fill="url(#accent)"/>
    <text x="249" y="173" class="chipText" fill="#0D1725" text-anchor="middle">
      Experimental compiler
    </text>

    <text x="164" y="252" class="title">Vitte</text>
    <text x="164" y="304" class="subtitle">
      A systems language and compiler project designed to stay understandable.
    </text>
    <text x="164" y="342" class="subtitle">
      You can read code, run commands, inspect diagnostics, and follow every stage.
    </text>
    <text x="164" y="406" class="body">
      For newcomers: start with the terminal commands. For compiler engineers: follow the pipeline.
    </text>
  </g>

  <!-- Topic chips -->
  <g id="topic-chips">
    <rect x="164" y="448" width="144" height="34" rx="17" fill="#123451"/>
    <rect x="320" y="448" width="152" height="34" rx="17" fill="#123451"/>
    <rect x="484" y="448" width="132" height="34" rx="17" fill="#123451"/>
    <text x="236" y="470" class="ui" fill="#EAF6FA" text-anchor="middle">language</text>
    <text x="396" y="470" class="ui" fill="#EAF6FA" text-anchor="middle">compiler</text>
    <text x="550" y="470" class="ui" fill="#EAF6FA" text-anchor="middle">bootstrap</text>
  </g>

  <!-- Terminal 1 -->
  <g id="terminal-check">
    <rect x="706" y="144" width="394" height="122" rx="20" fill="url(#terminal)"/>
    <rect x="706" y="144" width="394" height="32" rx="20" fill="#152A40"/>
    <rect x="706" y="158" width="394" height="18" fill="#152A40"/>
    <circle cx="732" cy="160" r="5" fill="#FF6B6B"/>
    <circle cx="748" cy="160" r="5" fill="#FFC857"/>
    <circle cx="764" cy="160" r="5" fill="#51CF66"/>
    <text x="903" y="164" class="ui" fill="#BDD4DE" text-anchor="middle">
      terminal 1 · first command
    </text>
    <text x="728" y="205" class="monoBold" fill="#63E6BE">$</text>
    <text x="751" y="205" class="mono" fill="#F3F7FA">
      bin/vitte check src/vitte/compiler/main.vit
    </text>
    <text x="728" y="238" class="mono" fill="#8DC1D5">check succeeded</text>
  </g>

  <!-- Terminal 2 -->
  <g id="terminal-json">
    <rect x="686" y="246" width="414" height="140" rx="20" fill="url(#terminal)"/>
    <rect x="686" y="246" width="414" height="32" rx="20" fill="#152A40"/>
    <rect x="686" y="260" width="414" height="18" fill="#152A40"/>
    <circle cx="712" cy="262" r="5" fill="#FF6B6B"/>
    <circle cx="728" cy="262" r="5" fill="#FFC857"/>
    <circle cx="744" cy="262" r="5" fill="#51CF66"/>
    <text x="893" y="266" class="ui" fill="#BDD4DE" text-anchor="middle">
      terminal 2 · machine-readable output
    </text>
    <text x="708" y="306" class="monoBold" fill="#63E6BE">$</text>
    <text x="731" y="306" class="mono" fill="#F3F7FA">
      bin/vitte check main.vit --diagnostics-json
    </text>
    <text x="708" y="338" class="mono" fill="#F8C56C">{ "surface": "diagnostics",</text>
    <text x="708" y="364" class="mono" fill="#F8C56C">  "pipeline_failed_at": "none" }</text>
  </g>

  <!-- Visual pipeline -->
  <g id="pipeline">
    <rect x="164" y="520" width="430" height="78" rx="18" fill="#EFF5F7"/>
    <text x="188" y="548" class="label" fill="#27445B">compiler pipeline</text>

    <rect x="188" y="562" width="66" height="22" rx="11" fill="url(#chip)"/>
    <rect x="272" y="562" width="74" height="22" rx="11" fill="url(#chip)"/>
    <rect x="364" y="562" width="54" height="22" rx="11" fill="url(#chip)"/>
    <rect x="436" y="562" width="42" height="22" rx="11" fill="url(#chip)"/>
    <rect x="496" y="562" width="82" height="22" rx="11" fill="url(#accent)"/>

    <text x="221" y="577" class="ui" fill="#EFF8FA" text-anchor="middle">lexer</text>
    <text x="309" y="577" class="ui" fill="#EFF8FA" text-anchor="middle">parser</text>
    <text x="391" y="577" class="ui" fill="#EFF8FA" text-anchor="middle">MIR</text>
    <text x="457" y="577" class="ui" fill="#EFF8FA" text-anchor="middle">IR</text>
    <text x="537" y="577" class="ui" fill="#0E1726" text-anchor="middle">backend</text>

    <path d="M254 573H272" stroke="#6CAEC2" stroke-width="3" stroke-linecap="round"/>
    <path d="M346 573H364" stroke="#6CAEC2" stroke-width="3" stroke-linecap="round"/>
    <path d="M418 573H436" stroke="#6CAEC2" stroke-width="3" stroke-linecap="round"/>
    <path d="M478 573H496" stroke="#6CAEC2" stroke-width="3" stroke-linecap="round"/>
  </g>

  <!-- Before / after diagnostics -->
  <g id="diagnostics-compare">
    <rect x="626" y="410" width="238" height="170" rx="20" fill="#FFF4F2"/>
    <rect x="882" y="410" width="238" height="170" rx="20" fill="#EEF8F1"/>

    <text x="650" y="440" class="label" fill="#A33F2F">before diagnostics</text>
    <text x="906" y="440" class="label" fill="#257346">after diagnostics</text>

    <text x="650" y="474" class="mono" fill="#B25543">error: validation failed</text>
    <text x="650" y="502" class="mono" fill="#C77A69">stage unknown</text>
    <text x="650" y="530" class="mono" fill="#C77A69">message too generic</text>

    <text x="906" y="474" class="mono" fill="#257346">error[IR]</text>
    <text x="906" y="502" class="mono" fill="#36657A">
      pipeline_failed_at: ir_validate
    </text>
    <text x="906" y="530" class="mono" fill="#36657A">
      validation_reason: invalid-call-abi
    </text>
  </g>

  <!-- Syntax sample -->
  <g id="syntax-sample">
    <rect x="706" y="594" width="414" height="108" rx="20" fill="url(#terminal)"/>
    <rect x="706" y="594" width="414" height="30" rx="20" fill="#152A40"/>
    <rect x="706" y="606" width="414" height="18" fill="#152A40"/>
    <text x="912" y="614" class="ui" fill="#BDD4DE" text-anchor="middle">
      Vitte syntax sample
    </text>

    <text x="726" y="646" class="mono" fill="#69A9FF">space</text>
    <text x="782" y="646" class="mono" fill="#E7EEF4">hello/app</text>
    <text x="726" y="672" class="mono" fill="#69A9FF">proc</text>
    <text x="772" y="672" class="mono" fill="#F4F7FA">main</text>
    <text x="816" y="672" class="mono" fill="#A7BECD">()</text>
    <text x="842" y="672" class="mono" fill="#F4F7FA">-&gt;</text>
    <text x="872" y="672" class="mono" fill="#8BE28B">int</text>
    <text x="726" y="696" class="mono" fill="#69A9FF">give</text>
    <text x="772" y="696" class="mono" fill="#FFCC80">0</text>
    <text x="784" y="696" class="mono" fill="#A7BECD">;</text>
  </g>

  <!-- Closing line -->
  <g id="footer-line">
    <text x="164" y="644" class="body">
      Readable code, explicit stages, structured diagnostics, reproducible workflows.
    </text>
  </g>
</svg>
