<svg width="1200" height="630" viewBox="0 0 1200 630" fill="none" xmlns="http://www.w3.org/2000/svg" role="img" aria-labelledby="title desc">
  <title id="title">Vitte social card</title>
  <desc id="desc">Social card for the Vitte repository with a strong title, short project description, compiler pipeline, diagnostics framing, and a Vitte code sample.</desc>
  <defs>
    <linearGradient id="bg" x1="64" y1="42" x2="1148" y2="594" gradientUnits="userSpaceOnUse">
      <stop stop-color="#09111F"/>
      <stop offset="0.48" stop-color="#10223B"/>
      <stop offset="1" stop-color="#155066"/>
    </linearGradient>
    <linearGradient id="accent" x1="0" y1="0" x2="1" y2="1">
      <stop stop-color="#FFB84D"/>
      <stop offset="1" stop-color="#FF6A3D"/>
    </linearGradient>
    <linearGradient id="panel" x1="0" y1="0" x2="1" y2="1">
      <stop stop-color="#F7F1E9" stop-opacity="0.98"/>
      <stop offset="1" stop-color="#FFFFFF" stop-opacity="0.96"/>
    </linearGradient>
    <linearGradient id="terminal" x1="0" y1="0" x2="1" y2="1">
      <stop stop-color="#0C1728"/>
      <stop offset="1" stop-color="#11283D"/>
    </linearGradient>
    <linearGradient id="chip" x1="0" y1="0" x2="1" y2="1">
      <stop stop-color="#133452"/>
      <stop offset="1" stop-color="#0F6872"/>
    </linearGradient>
    <filter id="shadow" x="84" y="70" width="1032" height="488" filterUnits="userSpaceOnUse" color-interpolation-filters="sRGB">
      <feFlood flood-opacity="0" result="BackgroundImageFix"/>
      <feColorMatrix in="SourceAlpha" type="matrix" values="0 0 0 0 0 0 0 0 0 0 0 0 0 0 0 0 0 0 127 0" result="hardAlpha"/>
      <feOffset dy="20"/>
      <feGaussianBlur stdDeviation="24"/>
      <feColorMatrix type="matrix" values="0 0 0 0 0.0156863 0 0 0 0 0.0470588 0 0 0 0 0.0941176 0 0 0 0.28 0"/>
      <feBlend mode="normal" in2="BackgroundImageFix" result="effect1_dropShadow_1_1"/>
      <feBlend mode="normal" in="SourceGraphic" in2="effect1_dropShadow_1_1" result="shape"/>
    </filter>
    <style>
      .title { font: 700 78px Georgia, 'Times New Roman', serif; fill: #102139; }
      .subtitle { font: 600 27px 'Avenir Next', 'Segoe UI', sans-serif; fill: #28445C; }
      .body { font: 500 20px 'Avenir Next', 'Segoe UI', sans-serif; fill: #627586; }
      .ui { font: 700 14px 'Avenir Next', 'Segoe UI', sans-serif; }
      .label { font: 700 15px 'Avenir Next', 'Segoe UI', sans-serif; }
      .mono { font: 500 16px 'SFMono-Regular', Consolas, 'Liberation Mono', Menlo, monospace; }
      .monoBold { font: 700 16px 'SFMono-Regular', Consolas, 'Liberation Mono', Menlo, monospace; }
    </style>
  </defs>

  <rect width="1200" height="630" rx="28" fill="url(#bg)"/>
  <circle cx="1090" cy="108" r="166" fill="#1C7681" fill-opacity="0.18"/>
  <circle cx="148" cy="566" r="154" fill="#FF7A59" fill-opacity="0.12"/>

  <g filter="url(#shadow)">
    <rect x="108" y="94" width="984" height="440" rx="28" fill="url(#panel)"/>
  </g>

  <rect x="146" y="128" width="160" height="38" rx="19" fill="url(#accent)"/>
  <text x="226" y="152" class="ui" fill="#101826" text-anchor="middle">Experimental compiler</text>

  <text x="146" y="235" class="title">Vitte</text>
  <text x="146" y="286" class="subtitle">A systems language and compiler project focused on clarity,</text>
  <text x="146" y="322" class="subtitle">diagnostics, reproducibility, and explicit compiler stages.</text>
  <text x="146" y="378" class="body">Language design + compiler engineering + bootstrap discipline</text>

  <g>
    <rect x="146" y="420" width="96" height="26" rx="13" fill="url(#chip)"/>
    <rect x="256" y="420" width="102" height="26" rx="13" fill="url(#chip)"/>
    <rect x="372" y="420" width="70" height="26" rx="13" fill="url(#chip)"/>
    <rect x="456" y="420" width="52" height="26" rx="13" fill="url(#chip)"/>
    <rect x="522" y="420" width="104" height="26" rx="13" fill="url(#accent)"/>
    <text x="194" y="437" class="ui" fill="#EEF8FA" text-anchor="middle">lexer</text>
    <text x="307" y="437" class="ui" fill="#EEF8FA" text-anchor="middle">parser</text>
    <text x="407" y="437" class="ui" fill="#EEF8FA" text-anchor="middle">MIR</text>
    <text x="482" y="437" class="ui" fill="#EEF8FA" text-anchor="middle">IR</text>
    <text x="574" y="437" class="ui" fill="#101826" text-anchor="middle">backend</text>
  </g>

  <g>
    <rect x="662" y="126" width="384" height="126" rx="20" fill="url(#terminal)"/>
    <rect x="662" y="126" width="384" height="30" rx="20" fill="#152A40"/>
    <rect x="662" y="138" width="384" height="18" fill="#152A40"/>
    <text x="854" y="146" class="ui" fill="#BDD4DE" text-anchor="middle">terminal</text>
    <text x="682" y="188" class="monoBold" fill="#63E6BE">$</text>
    <text x="704" y="188" class="mono" fill="#F4F7FA">bin/vitte check src/vitte/compiler/main.vit</text>
    <text x="682" y="220" class="mono" fill="#8FC2D6">check succeeded</text>
  </g>

  <g>
    <rect x="662" y="270" width="384" height="112" rx="20" fill="url(#terminal)"/>
    <rect x="662" y="270" width="384" height="30" rx="20" fill="#152A40"/>
    <rect x="662" y="282" width="384" height="18" fill="#152A40"/>
    <text x="854" y="290" class="ui" fill="#BDD4DE" text-anchor="middle">Vitte syntax</text>
    <text x="682" y="326" class="mono" fill="#69A9FF">proc</text>
    <text x="721" y="326" class="mono" fill="#F4F7FA">main</text>
    <text x="761" y="326" class="mono" fill="#A7BECD">()</text>
    <text x="787" y="326" class="mono" fill="#F4F7FA">-&gt;</text>
    <text x="816" y="326" class="mono" fill="#8BE28B">int</text>
    <text x="848" y="326" class="mono" fill="#A7BECD">{</text>
    <text x="682" y="354" class="mono" fill="#69A9FF">give</text>
    <text x="721" y="354" class="mono" fill="#FFCC80">0</text>
    <text x="731" y="354" class="mono" fill="#A7BECD">; }</text>
  </g>

  <g>
    <rect x="662" y="400" width="176" height="94" rx="18" fill="#FFF4F2"/>
    <rect x="870" y="400" width="176" height="94" rx="18" fill="#EEF8F1"/>
    <text x="680" y="426" class="label" fill="#A33F2F">before</text>
    <text x="888" y="426" class="label" fill="#257346">after</text>
    <text x="680" y="454" class="mono" fill="#B25543">validation failed</text>
    <text x="680" y="478" class="mono" fill="#C77A69">stage unknown</text>
    <text x="888" y="454" class="mono" fill="#257346">ir_validate</text>
    <text x="888" y="478" class="mono" fill="#36657A">invalid-call-abi</text>
  </g>
</svg>
